<?xml version="1.0" encoding="UTF-8" standalone="no"?>
<svg
   xmlns:dc="http://purl.org/dc/elements/1.1/"
   xmlns:cc="http://creativecommons.org/ns#"
   xmlns:rdf="http://www.w3.org/1999/02/22-rdf-syntax-ns#"
   xmlns:svg="http://www.w3.org/2000/svg"
   xmlns="http://www.w3.org/2000/svg"
   xmlns:sodipodi="http://sodipodi.sourceforge.net/DTD/sodipodi-0.dtd"
   xmlns:inkscape="http://www.inkscape.org/namespaces/inkscape"
   inkscape:version="1.0.1 (3bc2e813f5, 2020-09-07)"
   version="1.1"
   id="svg8"
   sodipodi:docname="logo.svg"
   width="150"
   height="150"
   inkscape:export-filename="/home/santtu/src/blog/static/favicon.ico.png"
   inkscape:export-xdpi="20.48"
   inkscape:export-ydpi="20.48">
  <metadata
     id="metadata46">
    <rdf:RDF>
      <cc:Work
         rdf:about="">
        <dc:format>image/svg+xml</dc:format>
        <dc:type
           rdf:resource="http://purl.org/dc/dcmitype/StillImage" />
        <dc:title />
      </cc:Work>
    </rdf:RDF>
  </metadata>
  <defs
     id="defs44" />
  <sodipodi:namedview
     inkscape:current-layer="#090909ff"
     inkscape:window-maximized="1"
     inkscape:window-y="28"
     inkscape:window-x="192"
     inkscape:cy="73.676704"
     inkscape:cx="62.326282"
     inkscape:zoom="7.120891"
     showgrid="false"
     id="namedview42"
     inkscape:window-height="1052"
     inkscape:window-width="1727"
     inkscape:pageshadow="2"
     inkscape:pageopacity="0"
     guidetolerance="10"
     gridtolerance="10"
     objecttolerance="10"
     borderopacity="1"
     bordercolor="#666666"
     pagecolor="#ffffff"
     inkscape:document-rotation="0"
     inkscape:snap-global="false" />
  <g
     id="layer1">
    <g
       id="g194"
       transform="matrix(0.35277778,0,0,0.35277778,-13.851428,0.15370967)">
      <g
         id="#090909ff"
         transform="translate(2.9451527,-0.28153932)">
        <rect
           style="fill:#5aab2e;fill-opacity:1;stroke-width:3.06862"
           id="rect964-6"
           width="44.388409"
           height="66.03653"
           x="59.196777"
           y="227.53957"
           ry="0" />
        <rect
           style="fill:#d62534;fill-opacity:1;stroke-width:3.06861"
           id="rect964"
           width="44.388409"
           height="66.03653"
           x="398.4079"
           y="128.23065"
           ry="0" />
        <path
           id="path26"
           style="fill:#5aab2e;fill-opacity:1;stroke:#000000;stroke-width:1.15739;stroke-miterlimit:4;stroke-dasharray:none;stroke-opacity:1"
           d="m 442.04764,125.23692 c 2.21174,4.04009 3.38249,10.35007 2.63726,21.80828 4.58719,-0.70193 7.79347,-1.52113 7.83798,9.15109 l 0.31191,11.89099 c 4.49397,6.98259 0.0218,19.27288 1.73056,27.49275 2.29711,-1.47299 0.73908,-0.43583 2.9266,-2.04639 -0.0499,23.10337 6.6276,47.41727 -18.40688,41.15589 -4.41077,1.86209 -7.0125,3.34578 -12.06884,2.70452 3.45441,-1.31472 6.80104,-3.11502 9.14472,-5.93562 -5.74299,0.92142 -7.07498,-0.53002 -12.67037,-0.65926 2.77092,-1.24451 5.53475,-2.48951 8.26974,-3.81369 -4.32927,-6.48215 -3.83793,-20.04526 -7.71302,-25.36786 -19.62291,-5.21557 -44.03679,10.65777 -54.57863,27.75402 2.84635,1.23753 7.06911,3.00549 10.63456,2.89331 -2.40302,4.40729 -9.1328,4.81338 -13.55314,5.53498 2.85235,3.65153 8.236,4.22061 13.47155,4.04013 -1.80501,2.87386 -4.80512,2.49502 -10.50982,5.13576 -1.85922,1.6218 -2.91608,5.1323 -5.89456,4.51941 -5.23803,-1.54813 -7.66823,-6.57734 -7.25281,-11.67529 0.37782,-10.87544 3.94948,-18.32556 -4.18147,-31.92621 2.18005,-7.01164 18.37448,-11.23627 23.83157,-8.043 -1.06179,-8.84698 -24.46287,-9.41964 -33.00078,-7.26346 5.49027,-11.40079 -38.37887,-57.96406 -6.95337,-61.11343 4.69093,1.30929 -91.6115,-9.01387 -68.81629,-38.142283 -11.30666,6.386092 -82.25303,32.256993 -90.54337,4.39863 -33.60636,15.017673 -59.43762,100.111643 -67.04675,55.605093 -13.124527,22.70266 -21.932988,65.89354 -21.932988,65.89354 -0.837366,-0.13279 -18.78264,-42.93076 -1.189953,-71.67043 1.365233,-24.36203 2.416635,-47.571559 33.257231,-67.105681 11.70922,-34.058854 55.00048,-59.463042 84.36394,-52.565655 19.25591,-17.746372 60.07295,-22.0800008 77.22001,-15.642115 20.97478,-5.9164422 57.68996,-3.6918263 80.49805,27.944662 25.51533,11.652013 58.67042,35.142378 59.72763,60.778819 5.67301,17.48716 15.58388,15.38033 20.44973,24.2685 z m -15.97566,27.07727 c -18.73524,-23.71406 -26.35521,19.3495 -24.97309,23.64401 1.69582,3.8808 36.67696,16.34009 40.68682,16.44494 1.98121,-7.49206 -10.70659,-35.08836 -15.71373,-40.08895 z"
           sodipodi:nodetypes="sccccccccccccccccccccccccccccccccscccc"
           transform="matrix(1.0002397,0,0,0.95952624,-0.06437462,5.281129)" />
        <path
           style="fill:none;fill-opacity:1;stroke:#000000;stroke-width:1.13386;stroke-linecap:round;stroke-linejoin:round;stroke-miterlimit:4;stroke-dasharray:none;stroke-opacity:1"
           d="m 335.34179,131.49125 c 4.92372,-0.0142 9.67238,-2.19342 9.67238,-2.19342"
           id="path1027"
           sodipodi:nodetypes="cc" />
        <path
           style="fill:none;fill-opacity:1;stroke:#000000;stroke-width:1.13386;stroke-linecap:round;stroke-linejoin:round;stroke-miterlimit:4;stroke-dasharray:none;stroke-opacity:1"
           d="m 266.65869,95.324427 c 4.81077,-2.884601 6.53168,-6.560958 6.53168,-6.560958"
           id="path1029" />
        <path
           style="fill:none;fill-opacity:1;stroke:#000000;stroke-width:1.13386;stroke-linecap:round;stroke-linejoin:round;stroke-miterlimit:4;stroke-dasharray:none;stroke-opacity:1"
           d="m 176.57508,99.225004 c 3.23945,-1.245214 6.08898,-5.66496 6.08898,-5.66496"
           id="path1031" />
        <path
           style="fill:none;fill-opacity:1;stroke:#000000;stroke-width:1.13386;stroke-linecap:round;stroke-linejoin:round;stroke-miterlimit:4;stroke-dasharray:none;stroke-opacity:1"
           d="m 109.5956,152.44387 c 2.58111,-2.75274 1.77589,-5.7916 1.77589,-5.7916"
           id="path1035" />
        <path
           id="path26-36"
           style="fill:#d62534;fill-opacity:1;stroke:#000000;stroke-width:1.13386;stroke-miterlimit:4;stroke-dasharray:none;stroke-opacity:1"
           d="m 59.346047,299.35263 c -2.21227,-3.87658 -3.38329,-9.93117 -2.63789,-20.92562 -4.5883,0.67352 -7.79533,1.45956 -7.83986,-8.78071 l -0.31199,-11.40972 c -4.49503,-6.69998 -0.0227,-18.49283 -1.73097,-26.38001 -2.29765,1.41337 -0.73925,0.41819 -2.92731,1.96356 0.0499,-22.16829 -6.62919,-45.49811 18.41131,-39.49015 4.41181,-1.78673 7.01418,-3.21037 12.07173,-2.59506 -3.45523,1.26151 -6.80267,2.98894 -9.14692,5.69538 5.74438,-0.88413 7.07669,0.50857 12.67342,0.63258 -2.77161,1.19414 -5.53609,2.38875 -8.27172,3.65933 4.33028,6.2198 3.83884,19.23396 7.71485,24.34113 19.62763,5.00448 44.047363,-10.22641 54.591733,-26.63071 -2.84703,-1.18744 -7.07082,-2.88385 -10.63712,-2.77621 2.40358,-4.22891 9.13499,-4.61856 13.55638,-5.31095 -2.85301,-3.50375 -8.23796,-4.04979 -13.47477,-3.87662 1.80544,-2.75754 4.80629,-2.39403 10.51234,-4.92789 1.85967,-1.55616 2.91677,-4.92458 5.89598,-4.3365 5.23928,1.48548 7.67006,6.31113 7.25454,11.20275 -0.37791,10.43527 -3.95043,17.58386 4.18247,30.63404 -2.18057,6.72785 -18.37889,10.78149 -23.83728,7.71747 1.06206,8.48891 24.46873,9.03839 33.00869,6.96948 -5.49158,10.93935 38.38807,55.61804 6.95504,58.63994 -4.69206,-1.2563 91.63346,8.64904 68.83278,36.59852 11.30937,-6.12762 82.27275,-30.95143 90.56508,-4.2206 33.61441,-14.40985 59.45186,-96.05975 67.06282,-53.35455 13.12767,-21.78379 21.93824,-63.22658 21.93824,-63.22658 0.83757,0.12742 18.78715,41.19319 1.19024,68.76966 -1.36556,23.37601 -2.41721,45.64616 -33.2652,64.38967 -11.71203,32.68036 -55.01366,57.05635 -84.38416,50.43812 -19.26053,17.02811 -60.08735,21.18634 -77.23852,15.00902 -20.97981,5.67698 -57.70379,3.54241 -80.51735,-26.81363 -25.52145,-11.18042 -58.684483,-33.72004 -59.741943,-58.31888 -5.67437,-16.77939 -15.58761,-14.75783 -20.45464,-23.28626 z m 15.9795,-25.98135 c 18.73973,22.75426 26.361523,-18.56636 24.979063,-22.68705 -1.696223,-3.72373 -36.685753,-15.67875 -40.696553,-15.77935 -1.9817,7.18882 10.70915,33.6682 15.71749,38.4664 z"
           sodipodi:nodetypes="sccccccccccccccccccccccccccccccccscccc" />
        <path
           style="fill:none;fill-opacity:1;stroke:#000000;stroke-width:1.13386;stroke-linecap:round;stroke-linejoin:round;stroke-miterlimit:4;stroke-dasharray:none;stroke-opacity:1"
           d="m 166.09349,293.31062 c -4.92373,0.0142 -9.67238,2.19342 -9.67238,2.19342"
           id="path1027-7"
           sodipodi:nodetypes="cc" />
        <path
           style="fill:none;fill-opacity:1;stroke:#000000;stroke-width:1.13386;stroke-linecap:round;stroke-linejoin:round;stroke-miterlimit:4;stroke-dasharray:none;stroke-opacity:1"
           d="m 234.77659,329.47745 c -4.81077,2.8846 -6.53168,6.56095 -6.53168,6.56095"
           id="path1029-5" />
        <path
           style="fill:none;fill-opacity:1;stroke:#000000;stroke-width:1.13386;stroke-linecap:round;stroke-linejoin:round;stroke-miterlimit:4;stroke-dasharray:none;stroke-opacity:1"
           d="m 324.8602,325.57687 c -3.23945,1.24521 -6.08898,5.66496 -6.08898,5.66496"
           id="path1031-3" />
        <path
           style="fill:none;fill-opacity:1;stroke:#000000;stroke-width:1.13386;stroke-linecap:round;stroke-linejoin:round;stroke-miterlimit:4;stroke-dasharray:none;stroke-opacity:1"
           d="m 391.83968,272.358 c -2.58111,2.75274 -1.77589,5.7916 -1.77589,5.7916"
           id="path1035-5" />
      </g>
    </g>
  </g>
</svg>
