<?xml version="1.0" encoding="UTF-8" standalone="no"?>
<svg
   xmlns:dc="http://purl.org/dc/elements/1.1/"
   xmlns:cc="http://creativecommons.org/ns#"
   xmlns:rdf="http://www.w3.org/1999/02/22-rdf-syntax-ns#"
   xmlns:svg="http://www.w3.org/2000/svg"
   xmlns="http://www.w3.org/2000/svg"
   xmlns:sodipodi="http://sodipodi.sourceforge.net/DTD/sodipodi-0.dtd"
   xmlns:inkscape="http://www.inkscape.org/namespaces/inkscape"
   inkscape:version="1.0.1 (3bc2e813f5, 2020-09-07)"
   version="1.1"
   id="svg8"
   sodipodi:docname="logo.svg"
   width="150"
   height="150"
   inkscape:export-filename="/home/santtu/src/blog/static/favicon.ico.png"
   inkscape:export-xdpi="10.501159"
   inkscape:export-ydpi="10.501159">
  <metadata
     id="metadata46">
    <rdf:RDF>
      <cc:Work
         rdf:about="">
        <dc:format>image/svg+xml</dc:format>
        <dc:type
           rdf:resource="http://purl.org/dc/dcmitype/StillImage" />
        <dc:title />
      </cc:Work>
    </rdf:RDF>
  </metadata>
  <defs
     id="defs44">
    <filter
       inkscape:collect="always"
       style="color-interpolation-filters:sRGB"
       id="filter1082"
       x="-0.00012093794"
       width="1.0002419"
       y="-0.00019023706"
       height="1.0003805">
      <feGaussianBlur
         inkscape:collect="always"
         stdDeviation="0.019119892"
         id="feGaussianBlur1084" />
    </filter>
    <filter
       inkscape:collect="always"
       style="color-interpolation-filters:sRGB"
       id="filter1082-0"
       x="-0.00012093794"
       width="1.0002419"
       y="-0.00019023706"
       height="1.0003805">
      <feGaussianBlur
         inkscape:collect="always"
         stdDeviation="0.019119892"
         id="feGaussianBlur1084-9" />
    </filter>
  </defs>
  <sodipodi:namedview
     inkscape:current-layer="g194"
     inkscape:window-maximized="1"
     inkscape:window-y="28"
     inkscape:window-x="384"
     inkscape:cy="87.208867"
     inkscape:cx="73.124363"
     inkscape:zoom="4.5889227"
     showgrid="false"
     id="namedview42"
     inkscape:window-height="1052"
     inkscape:window-width="1535"
     inkscape:pageshadow="2"
     inkscape:pageopacity="0"
     guidetolerance="10"
     gridtolerance="10"
     objecttolerance="10"
     borderopacity="1"
     bordercolor="#666666"
     pagecolor="#ffffff"
     inkscape:document-rotation="0"
     inkscape:snap-global="false" />
  <g
     id="layer1">
    <g
       id="g194"
       transform="matrix(0.35277778,0,0,0.35277778,-13.851428,0.15370967)">
      <g
         id="#090909ff"
         transform="translate(2.9451527,-0.28153932)">
        <rect
           style="fill:#5aab2e;fill-opacity:1;stroke-width:3.06862"
           id="rect964-6"
           width="44.388409"
           height="66.03653"
           x="59.196777"
           y="227.53957"
           ry="0" />
        <rect
           style="fill:#d62534;fill-opacity:1;stroke-width:3.06861"
           id="rect964"
           width="44.388409"
           height="66.03653"
           x="398.4079"
           y="128.23065"
           ry="0" />
        <path
           id="path26"
           style="fill:#5aab2e;fill-opacity:1;stroke-width:0.763224;filter:url(#filter1082)"
           d="m 442.04764,125.23692 c 2.21174,4.04009 3.38249,10.35007 2.63726,21.80828 4.58719,-0.70193 7.79347,-1.52113 7.83798,9.15109 l 0.31191,11.89099 c 4.49397,6.98259 0.0218,19.27288 1.73056,27.49275 2.29711,-1.47299 0.73908,-0.43583 2.9266,-2.04639 -0.0499,23.10337 6.6276,47.41727 -18.40688,41.15589 -4.41077,1.86209 -7.0125,3.34578 -12.06884,2.70452 3.45441,-1.31472 6.80104,-3.11502 9.14472,-5.93562 -5.74299,0.92142 -7.07498,-0.53002 -12.67037,-0.65926 2.77092,-1.24451 5.53475,-2.48951 8.26974,-3.81369 -4.32927,-6.48215 -3.83793,-20.04526 -7.71302,-25.36786 -19.62291,-5.21557 -44.03679,10.65777 -54.57863,27.75402 2.84635,1.23753 7.06911,3.00549 10.63456,2.89331 -2.40302,4.40729 -9.1328,4.81338 -13.55314,5.53498 2.85235,3.65153 8.236,4.22061 13.47155,4.04013 -1.80501,2.87386 -4.80512,2.49502 -10.50982,5.13576 -1.85922,1.6218 -2.91608,5.1323 -5.89456,4.51941 -5.23803,-1.54813 -7.66823,-6.57734 -7.25281,-11.67529 0.37782,-10.87544 3.94948,-18.32556 -4.18147,-31.92621 2.18005,-7.01164 18.37448,-11.23627 23.83157,-8.043 -1.06179,-8.84698 -24.46287,-9.41964 -33.00078,-7.26346 5.49027,-11.40079 -38.37887,-57.96406 -6.95337,-61.11343 4.69093,1.30929 -89.63033,-6.03221 -65.34305,-37.800817 -26.25218,3.67489 -85.72627,31.915527 -94.01661,4.057164 -33.60636,15.017673 -59.43762,100.111643 -67.04675,55.605093 -13.124527,22.70266 -21.932988,65.89354 -21.932988,65.89354 -0.837366,-0.13279 -18.78264,-42.93076 -1.189953,-71.67043 1.365233,-24.36203 2.416635,-47.571559 33.257231,-67.105681 11.70922,-34.058854 55.00048,-59.463042 84.36394,-52.565655 19.25591,-17.746372 60.07295,-22.0800008 77.22001,-15.642115 20.97478,-5.9164422 57.68996,-3.6918263 80.49805,27.944662 25.51533,11.652013 58.67042,35.142378 59.72763,60.778819 5.67301,17.48716 15.58388,15.38033 20.44973,24.2685 z m -15.97566,27.07727 c -18.73524,-23.71406 -26.35521,19.3495 -24.97309,23.64401 1.69582,3.8808 36.67696,16.34009 40.68682,16.44494 1.98121,-7.49206 -10.70659,-35.08836 -15.71373,-40.08895 z"
           sodipodi:nodetypes="sccccccccccccccccccccccccccccccccscccc" />
        <path
           id="path26-3"
           style="fill:#d62534;fill-opacity:1;stroke-width:0.763224;filter:url(#filter1082-0)"
           d="m 513.46701,93.44897 c 2.21174,4.04009 3.38249,10.35007 2.63726,21.80828 4.58719,-0.70193 7.79347,-1.52113 7.83798,9.15109 l 0.31191,11.89099 c 4.49397,6.98259 0.0218,19.27288 1.73056,27.49275 2.29711,-1.47299 0.73908,-0.43583 2.9266,-2.04639 -0.0499,23.10337 6.6276,47.41727 -18.40688,41.15589 -4.41077,1.86209 -7.0125,3.34578 -12.06884,2.70452 3.45441,-1.31472 6.80104,-3.11502 9.14472,-5.93562 -5.74299,0.92142 -7.07498,-0.53002 -12.67037,-0.65926 2.77092,-1.24451 5.53475,-2.48951 8.26974,-3.81369 -4.32927,-6.48215 -3.83793,-20.04526 -7.71302,-25.36786 -19.62291,-5.21557 -44.03679,10.65777 -54.57863,27.75402 2.84635,1.23753 7.06911,3.00549 10.63456,2.89331 -2.40302,4.40729 -9.1328,4.81338 -13.55314,5.53498 2.85235,3.65153 8.236,4.22061 13.47155,4.04013 -1.80501,2.87386 -4.80512,2.49502 -10.50982,5.13576 -1.85922,1.6218 -2.91608,5.1323 -5.89456,4.51941 -5.23803,-1.54813 -7.66823,-6.57734 -7.25281,-11.67529 0.37782,-10.87544 3.94948,-18.32556 -4.18147,-31.92621 2.18005,-7.01164 18.37448,-11.23627 23.83157,-8.043 -1.06179,-8.84698 -24.46287,-9.41964 -33.00078,-7.26346 5.49027,-11.40079 -38.37887,-57.96406 -6.95337,-61.11343 4.69093,1.30929 -89.63033,-6.03221 -65.34305,-37.800819 -26.25218,3.67489 -85.72627,31.915529 -94.01661,4.057164 -33.60636,15.017675 -59.43762,100.111645 -67.04675,55.605095 -13.12453,22.70266 -21.93299,65.89354 -21.93299,65.89354 -0.83737,-0.13279 -18.78264,-42.93076 -1.18995,-71.67043 1.36523,-24.36203 2.41663,-47.571561 33.25723,-67.105683 11.70922,-34.058854 55.00048,-59.463042 84.36394,-52.5656554 19.25591,-17.7463726 60.07295,-22.0800006 77.22001,-15.6421156 20.97478,-5.916442 57.68996,-3.691826 80.49805,27.9446626 25.51533,11.6520134 58.67042,35.1423784 59.72763,60.7788194 5.67301,17.487162 15.58388,15.380332 20.44973,24.268502 z m -15.97566,27.07727 c -18.73524,-23.71406 -26.35521,19.3495 -24.97309,23.64401 1.69582,3.8808 36.67696,16.34009 40.68682,16.44494 1.98121,-7.49206 -10.70659,-35.08836 -15.71373,-40.08895 z"
           sodipodi:nodetypes="sccccccccccccccccccccccccccccccccscccc"
           transform="rotate(180,286.38992,196.82843)" />
      </g>
    </g>
  </g>
</svg>
