<?xml version="1.0" encoding="UTF-8" standalone="no"?>
<svg
   xmlns:dc="http://purl.org/dc/elements/1.1/"
   xmlns:cc="http://creativecommons.org/ns#"
   xmlns:rdf="http://www.w3.org/1999/02/22-rdf-syntax-ns#"
   xmlns:svg="http://www.w3.org/2000/svg"
   xmlns="http://www.w3.org/2000/svg"
   xmlns:sodipodi="http://sodipodi.sourceforge.net/DTD/sodipodi-0.dtd"
   xmlns:inkscape="http://www.inkscape.org/namespaces/inkscape"
   inkscape:version="1.0.1 (3bc2e813f5, 2020-09-07)"
   version="1.1"
   id="svg8"
   sodipodi:docname="logo.svg"
   width="150"
   height="150">
  <metadata
     id="metadata46">
    <rdf:RDF>
      <cc:Work
         rdf:about="">
        <dc:format>image/svg+xml</dc:format>
        <dc:type
           rdf:resource="http://purl.org/dc/dcmitype/StillImage" />
        <dc:title />
      </cc:Work>
    </rdf:RDF>
  </metadata>
  <defs
     id="defs44" />
  <sodipodi:namedview
     inkscape:current-layer="#090909ff"
     inkscape:window-maximized="1"
     inkscape:window-y="28"
     inkscape:window-x="960"
     inkscape:cy="58.655205"
     inkscape:cx="88.354376"
     inkscape:zoom="2.9036879"
     showgrid="false"
     id="namedview42"
     inkscape:window-height="1052"
     inkscape:window-width="959"
     inkscape:pageshadow="2"
     inkscape:pageopacity="0"
     guidetolerance="10"
     gridtolerance="10"
     objecttolerance="10"
     borderopacity="1"
     bordercolor="#666666"
     pagecolor="#ffffff"
     inkscape:document-rotation="0"
     inkscape:snap-global="false" />
  <g
     id="layer1">
    <g
       id="g194"
       transform="matrix(0.35277778,0,0,0.35277778,-13.851428,0.15370967)">
      <g
         id="#090909ff"
         transform="translate(2.9451527,-0.28153932)">
        <path
           style="fill:#aa8800;stroke-width:0.743197"
           id="path26"
           d="m 186.88655,20.530483 c 10.29407,-4.520872 11.28297,-1.800081 13.15597,1.889627 33.9573,-17.4077332 28.10235,2.156598 57.16228,-2.598308 -17.71621,21.319153 -44.40446,28.759986 -67.43027,35.012008 59.74236,-0.514208 46.11878,32.677473 4.7416,50.29957 46.13371,-29.562562 14.97451,-49.674931 -7.30562,-22.56346 -2.6685,-7.23002 0.1548,-9.307397 -8.94809,-6.317175 6.10443,2.670545 9.01398,8.150233 3.47816,12.753255 -17.60442,-0.205923 -20.76604,13.90548 -31.02104,18.82518 -4.67472,2.48228 -10.86555,2.83158 -15.26527,-0.37903 -2.24445,-1.93975 0.54997,-4.22136 1.07764,-6.28744 -0.62823,-5.342877 -2.66187,-7.398567 -0.89927,-9.958837 2.73497,3.94637 6.27259,7.68465 11.37091,8.23462 -1.76138,-3.57478 -5.10556,-8.723148 -2.19967,-12.37968 1.87286,2.682943 5.91566,5.051754 8.68778,6.62733 5.46993,-7.461694 9.35685,-16.261147 10.29328,-25.52138 0.30471,-3.106564 -1.32289,-6.844844 -4.78618,-7.20901 -9.20822,-1.0925 -18.38796,7.524705 -27.00904,3.59319 -0.5574,0.512806 -1.12223,1.025611 -1.68706,1.530986 0.24525,2.586329 0.5797,5.15779 0.92157,7.736684 -3.23292,-4.080152 -5.36865,-4.442832 -7.67256,-9.080381 -1.41207,2.935628 -1.28574,6.175966 -0.63172,9.289962 -3.42613,-3.463298 -3.4425,-6.019509 -4.10113,-10.073862 -19.933054,-15.83018 7.17349,-21.270457 29.37696,-31.165441 -0.33443,2.303911 -0.20203,0.709271 -0.34325,3.035478 8.85892,-2.244455 18.19916,-10.792757 27.4148,-10.450886 m -12.58232,9.795336 c -2.57013,0.68175 -4.76284,1.259718 -8.37583,3.909216 2.32859,2.918773 7.28904,2.691651 11.96547,2.289047 4.90023,-0.810972 7.29833,-1.890109 9.18591,-5.388178 -4.15446,-0.869541 -8.5542,-1.677904 -12.77555,-0.810085 m -41.36085,11.687152 c -0.96298,0.433745 2.94571,4.259479 3.07683,2.415391 -0.0594,-0.549966 0.41209,-0.925457 -0.24525,-2.214728 -0.79523,-0.119887 -0.85489,-0.502071 -2.83158,-0.200663 z"
           opacity="1"
           fill="#090909"
           sodipodi:nodetypes="ccccccccccccccccccccccccccccccccccc" />
        <path
           style="fill:#aa8800;stroke-width:0.743197"
           id="path28"
           d="m 252.62671,26.889605 c 18.86133,-4.638596 37.88505,6.49189 53.17573,3.790304 -25.44601,16.072252 -66.73555,34.868252 -87.67994,20.34291 6.87458,-3.567345 28.95996,-18.68558 34.50421,-24.133214 z"
           opacity="1"
           fill="#090909"
           sodipodi:nodetypes="cccc" />
        <path
           style="fill:#aa8800;stroke-width:0.743197"
           id="path30"
           d="m 302.33963,35.637437 c 35.51003,6.890413 63.03956,21.780342 82.62815,46.821003 28.21175,16.175023 31.61189,53.29631 51.64641,75.32669 11.45402,30.66698 4.28376,37.52548 11.16844,62.63097 2.58633,8.34611 -5.29884,16.83539 -3.78272,25.19636 1.9347,16.78116 -1.89647,17.0617 -8.73256,35.94101 -6.48728,27.47666 -12.08886,32.76663 -23.36611,47.20786 -4.60783,6.45096 -7.04551,14.06129 -10.12977,21.2703 -3.12143,6.87457 -11.09593,8.3461 -16.98206,11.98033 -7.72182,3.98355 -10.38246,12.83502 -16.03818,18.84005 -4.64499,3.15115 -10.68718,3.13629 -15.8524,5.01657 -9.0893,1.91745 -11.89858,13.22148 -20.84667,15.46593 -21.61382,5.70199 -24.10741,3.91098 -42.19129,12.74583 -39.86345,5.31214 -76.24236,0.24964 -108.90808,-12.05465 -4.45175,0.0223 -9.61957,-1.23467 -14.07132,-1.98529 -6.56243,-3.26264 -9.2279,-8.15935 -15.2255,-12.14288 -17.72419,-2.18099 -18.33298,-11.28693 -28.76916,-20.27441 -16.19097,-4.29238 -17.61116,-15.76022 -25.469356,-27.40168 -2.259318,-2.36337 -5.566545,-3.33695 -8.100846,-5.35102 -14.189884,-22.2058 -20.485881,-36.90349 -29.980565,-62.04951 -8.770856,-21.58995 0.301988,-6.06574 -6.862931,-24.09191 -0.865558,-7.78784 -0.621062,-15.53535 -0.791997,-23.37608 -2.050817,-13.61932 -1.326118,-6.96123 -1.932312,-20.8987 -0.423623,-8.52447 5.24697,-15.60713 6.64418,-23.76743 2.932921,-19.88933 0.808666,-8.50259 8.41299,-25.00115 3.634233,-6.77052 7.17185,-13.60051 10.612852,-20.4825 3.619369,-8.45016 10.486509,-14.84165 15.733479,-22.23646 1.9992,-3.12143 3.634233,-6.45094 5.447634,-9.67643 4.532732,13.18036 10.145452,21.02838 5.821492,36.99393 -23.677012,63.64873 -15.348909,27.05946 -9.81246,-26.82699 -13.575993,20.96847 -8.968627,32.48358 -8.00182,50.87808 1.12966,10.78379 -2.217138,17.12444 -7.575588,25.61918 -14.387021,-17.14752 0.943435,-36.32567 2.177567,-54.20878 -3.946375,6.20569 -6.495541,13.13229 -9.230506,19.91768 -8.194512,47.32637 20.962361,36.54618 14.665537,82.22396 -27.14158,-15.80376 -27.503011,-31.50052 -24.052114,-58.28559 -2.623189,15.95608 -9.574236,30.98394 1.367482,42.28048 13.763473,12.08827 36.973803,33.62508 31.303611,51.20818 -22.638847,-8.48943 -30.939074,-12.9791 -33.934527,-39.66634 -0.05202,-4.22878 -1.939745,-8.02653 -3.901785,-11.63847 -0.118912,11.95061 0.460783,24.16877 4.355134,35.57684 0.854676,2.17757 1.568146,4.80848 3.864625,5.90099 20.462557,7.69207 40.547684,21.41863 43.827184,40.89039 -7.42454,-1.88029 -27.952498,-4.31767 -32.463704,-11.37061 -4.26595,-8.16774 -4.570661,-18.92923 -12.753259,-24.70387 3.589641,8.36097 6.963755,16.81112 9.758176,25.47679 0.936428,2.27419 1.635033,5.299 4.347702,6.0422 24.542815,5.3237 41.980965,4.58054 52.372805,30.57644 -38.370373,2.86864 -35.207928,-11.31102 -50.983027,-24.11806 32.969867,53.15895 53.747697,2.5772 81.709357,47.9871 -7.76641,0.44591 -36.4073,2.07932 -43.94332,-0.43269 -11.5113,-7.52362 -4.88224,-14.1189 -18.428052,-16.38473 8.064002,9.7738 11.423482,18.7162 23.641092,20.64601 30.21752,2.27121 41.65515,-10.70346 63.79603,11.6013 -8.66377,2.15081 -20.56457,5.17116 -30.78907,8.32163 -18.47493,1.91518 -23.422,-14.59814 -35.91285,-17.42579 38.00407,44.36871 59.82732,-1.64358 94.22258,17.69276 -37.96598,26.92882 -41.23497,10.17167 -56.64655,9.33731 14.52899,9.65225 20.69755,10.12196 41.33661,2.01406 18.56343,-8.1871 19.65599,-11.26308 55.15005,-6.53636 -22.45806,24.79021 -39.20084,20.80228 -65.75547,18.77682 8.56906,3.45586 17.50229,5.93815 26.5693,7.68466 23.4836,-0.6687 28.52983,-29.31761 65.14693,-24.42894 -23.32486,39.08673 -32.47601,19.58982 -52.40854,26.38354 10.89527,1.18168 21.9689,2.38566 32.89389,1.05535 16.11031,-16.35802 18.8117,-35.70035 56.12937,-36.47386 -8.6442,32.22974 -21.0767,27.91785 -38.37439,35.10637 9.79534,-1.14452 19.64269,-2.91333 28.94009,-6.25029 4.48148,-1.26343 4.1842,-6.80025 5.90098,-10.22638 6.32693,-19.00871 11.29613,-29.25768 39.99886,-41.5893 -8.06079,25.36256 0.28884,31.84043 -28.74686,45.48364 21.80975,-5.2306 22.43129,-9.58386 29.35628,-34.79648 4.28421,-13.682 9.85782,-24.71961 25.87687,-35.88977 -0.31214,5.69289 1.3836,24.22159 -1.10611,29.53545 -7.55088,9.99599 -17.66579,17.65835 -25.75921,27.18613 8.35353,-4.85307 16.29088,-10.45677 23.58164,-16.79624 4.08758,-2.91334 3.24034,-8.50218 4.2065,-12.81272 4.69933,-26.18293 -4.65482,-36.5052 21.15881,-58.00652 -0.11834,23.07133 8.95891,22.2687 2.50458,34.01613 -4.69701,10.99931 -13.80861,19.15961 -20.02173,29.2225 10.29328,-8.27922 18.5056,-18.74343 26.27201,-29.34142 -1.56072,-11.66076 -5.31386,-22.98708 -6.09421,-34.74446 1.98434,-11.62359 5.98314,-27.67474 11.90642,-37.86397 2.87833,20.78815 15.66648,25.27288 9.95843,39.18687 -2.10325,7.90018 -6.03476,15.10176 -9.40888,22.49657 4.98686,-6.74823 9.09674,-14.10588 12.5526,-21.73851 5.32315,-13.0704 -3.23664,-19.07757 -7.811,-28.55363 -5.51452,-13.18431 -2.07272,-30.76655 3.49383,-43.71304 13.97859,12.19257 13.68162,24.02872 15.0638,39.87814 8.41984,-19.80423 -6.76504,-33.01831 -14.1402,-48.32024 -4.26595,-11.17768 -8.48201,-31.60586 -8.1773,-43.5862 16.9514,9.59162 12.8847,35.68496 26.35049,35.72495 -14.75702,-10.28499 -16.60112,-47.63829 -37.55639,-61.57048 8.57355,-2.77657 15.17311,5.44351 30.46287,20.61498 -10.89008,-21.34614 -44.04716,-31.2408 -53.11248,-50.19435 6.66637,-0.54692 30.57655,-2.59675 39.80884,22.25453 -2.16589,-7.01337 -5.92372,-18.39797 -12.99954,-20.82018 -46.31778,-6.55593 -40.62722,-14.80326 -61.29889,-32.737819 25.28516,1.879728 33.66363,-4.569293 54.57296,16.640179 C 389.49878,82.126514 361.52432,84.239883 342.47123,80.120365 324.17898,76.707604 315.31379,67.459927 307.67373,63.134521 336.83153,53.95417 354.40447,58.87993 375.94537,76.79528 345.80965,40.105832 302.67112,71.635441 262.38466,52.522831"
           opacity="1"
           fill="#090909"
           sodipodi:nodetypes="ccccccccccccccccccccccccccccccccccccccccccccccccccccccccccccccccccccccccccccccccccccccccccccccccccccccc" />
        <path
           style="fill:#aa8800;stroke-width:0.743197"
           id="path40"
           d="m 224.33319,59.181512 c 76.99369,-2.744764 65.65041,33.011029 8.9035,31.727077 11.84256,-6.481993 18.47853,-5.612481 18.79888,-18.454233 -9.40887,11.452664 -21.53041,21.240567 -35.53967,26.383497 11.4662,-15.146263 26.81785,-28.887848 7.83729,-39.656341"
           opacity="1"
           fill="#090909"
           sodipodi:nodetypes="ccccc" />
        <path
           style="fill:#aa8800;stroke-width:0.743197"
           id="path42"
           d="M 162.67014,64.086611 C 145.52553,84.156199 123.50611,99.516093 116.92386,107.23634 117.8296,70.513414 152.76494,66.010418 162.67014,64.086611 Z"
           opacity="1"
           fill="#090909"
           sodipodi:nodetypes="ccc" />
        <path
           style="fill:#aa8800;stroke-width:0.743197"
           id="path44"
           d="m 276.32726,62.704266 c 46.3634,12.882271 12.60703,33.892067 -16.11251,27.63206 16.54173,-6.454804 35.9962,-8.970059 16.11251,-27.63206 z"
           opacity="1"
           fill="#090909"
           sodipodi:nodetypes="ccc" />
        <path
           style="fill:#aa8800;stroke-width:0.743197"
           id="path52"
           d="m 299.10624,69.296422 c 34.73602,14.861635 14.76819,32.208118 -12.93906,24.629541 14.51125,-5.97114 30.50988,-8.581258 12.93906,-24.629541 z"
           opacity="1"
           fill="#090909"
           sodipodi:nodetypes="ccc" />
        <path
           sodipodi:nodetypes="cccccccsccc"
           style="fill:#aa8800;stroke-width:0.743197"
           id="path54"
           d="m 197.24367,77.144582 c 2.54916,-2.318774 5.49223,-4.741596 9.2528,-4.26595 3.59708,-0.126344 6.26515,3.195746 7.02321,6.428653 0.95129,3.24777 -1.08507,6.421222 -2.9059,8.933231 -5.93072,7.201577 -14.01669,12.188424 -20.18523,19.159614 -2.65322,3.37411 -4.33284,7.37994 -6.36919,11.13309 -0.22296,-4.63012 0.96615,-9.2974 3.66395,-13.0877 4.40309,-5.993077 10.72334,-10.010777 16.26983,-14.840464 1.86815,-1.626713 3.64852,-3.345549 5.23829,-5.263012 2.28905,-3.166019 2.63091,-8.375829 -0.78036,-10.872971 -4.02812,-0.683741 -7.56574,1.43437 -11.2074,2.675509 z"
           opacity="1"
           fill="#090909" />
        <path
           style="fill:#aa8800;stroke-width:0.743197"
           id="path68"
           d="m 101.76516,102.69569 c 4.9274,-6.837407 12.26274,-11.356049 19.27853,-15.778068 -13.50327,18.628088 -1.20549,22.437508 -13.07284,36.572718 -5.40732,-4.34368 -9.453494,-15.48216 -6.20569,-20.79465 z"
           opacity="1"
           fill="#090909"
           sodipodi:nodetypes="cccc" />
        <path
           style="fill:#aa8800;stroke-width:0.743197"
           id="path70"
           d="m 338.72899,87.654043 c 33.82423,28.183187 7.53992,40.446737 -17.20501,20.475077 16.86697,3.72528 29.49667,1.34698 17.20501,-20.475077 z"
           opacity="1"
           fill="#090909"
           sodipodi:nodetypes="ccc" />
        <path
           id="path72"
           d="m 178.71019,91.073236 c 10.05648,5.908947 10.49298,-18.38976 21.69101,-5.861385 -7.95007,0.03047 -14.61486,13.553942 -18.67115,12.752312 -3.61208,1.40217 -18.71438,13.001367 -30.06975,16.614907 -4.27635,1.02561 -8.66717,1.64991 -13.0996,1.85502 7.16889,-3.50491 15.5135,-5.4937 21.23612,-10.85364 5.82666,-4.12028 11.34912,-12.482744 18.91337,-14.507214 z"
           opacity="1"
           fill="#090909"
           sodipodi:nodetypes="ccccccc"
           style="fill:#aa8800;stroke-width:0.963295" />
        <path
           style="fill:#aa8800;stroke-width:0.743197"
           id="path78"
           d="m 358.07664,102.88531 c 30.75036,31.45048 0.0363,35.268 -20.62371,17.85159 15.05458,2.10708 28.17687,1.92249 20.62371,-17.85159 z"
           opacity="1"
           fill="#090909"
           sodipodi:nodetypes="ccc" />
        <path
           style="fill:#aa8800;stroke-width:0.743197"
           id="path80"
           d="m 118.84382,109.06488 c -1.88029,9.88453 -5.36588,19.88052 -12.01006,27.60977 -0.97677,-10.63326 6.98998,-19.54602 12.01006,-27.60977 z"
           opacity="1"
           fill="#090909"
           sodipodi:nodetypes="ccc" />
        <path
           style="fill:#aa8800;stroke-width:0.743197"
           id="path86"
           d="m 374.18596,118.75289 c 30.00935,38.95021 -1.46332,36.79553 -22.91276,13.9944 22.39472,4.59947 26.35049,5.23477 22.91276,-13.9944 z"
           opacity="1"
           fill="#090909"
           sodipodi:nodetypes="ccc" />
        <path
           style="fill:#aa8800;stroke-width:0.743197"
           id="path90"
           d="m 114.38464,132.59451 c -6.43783,15.99072 -9.64857,30.85084 -10.66487,46.4944 -2.8034,-7.18867 -3.40868,-12.27994 -3.849765,-15.19839 -3.455866,5.09834 -4.833716,11.61222 -8.378766,16.65853 3.882349,-16.87856 11.491611,-36.80545 22.893401,-47.95454 z"
           opacity="1"
           fill="#090909"
           sodipodi:nodetypes="ccccc" />
        <path
           style="fill:#aa8800;stroke-width:0.743197"
           id="path92"
           d="m 391.24186,137.27362 c 19.63276,40.16016 -5.95069,37.26258 -22.69723,12.29247 17.11989,7.20933 25.53646,11.14642 22.69723,-12.29247 z"
           opacity="1"
           fill="#090909"
           sodipodi:nodetypes="ccc" />
        <path
           style="fill:#aa8800;stroke-width:0.743197"
           id="path102"
           d="m 403.2276,156.17512 c 9.9101,36.05946 -10.12374,42.80653 -21.6196,12.18844 14.07004,10.22339 20.03974,7.79219 21.6196,-12.18844 z"
           opacity="1"
           fill="#090909"
           sodipodi:nodetypes="ccc" />
        <path
           style="fill:#aa8800;stroke-width:0.743197"
           id="path110"
           d="m 87.509702,226.97633 c -2.385662,-20.03659 1.256003,-41.01704 11.564145,-58.47473 -0.683741,17.84416 -1.649897,35.74034 0.11148,53.5622 -2.303911,-4.61526 -4.317975,-9.41631 -7.513721,-13.51876 -1.699633,3.94493 -4.62242,20.24477 -4.161904,18.43129 z"
           opacity="1"
           fill="#090909"
           sodipodi:nodetypes="ccccc" />
        <path
           style="fill:#aa8800;stroke-width:0.743197"
           id="path112"
           d="m 410.93215,174.52752 c 6.78532,37.02132 -18.07482,42.12581 -24.62955,10.67231 15.70571,12.17559 22.10657,7.15008 24.62955,-10.67231 z"
           opacity="1"
           fill="#090909"
           sodipodi:nodetypes="ccc" />
        <path
           style="fill:#aa8800;stroke-width:0.743197"
           id="path118"
           d="m 414.6621,198.21693 c -0.6059,42.47221 -23.58408,32.14905 -26.55443,2.61606 9.0517,15.73639 21.20809,11.76092 26.55443,-2.61606 z"
           opacity="1"
           fill="#090909"
           sodipodi:nodetypes="ccc" />
        <path
           style="fill:#aa8800;stroke-width:0.743197"
           id="path122"
           d="m 99.354805,268.90348 c -10.032118,-16.47842 -8.969941,-37.00442 -6.374943,-55.31929 5.196716,17.63076 16.482178,36.21576 19.750558,52.3965 -4.13719,-5.06538 -10.44861,-13.31066 -13.045992,-14.86905 -0.855769,5.90692 -0.716071,11.85543 -0.329623,17.79184 z"
           opacity="1"
           fill="#090909"
           sodipodi:nodetypes="ccccc" />
        <path
           style="fill:#aa8800;stroke-width:0.743197"
           id="path124"
           d="m 391.37034,222.34078 c 6.4491,18.18976 16.11219,15.18471 23.06069,-1.03537 -0.18448,37.59467 -24.93968,34.03252 -23.06069,1.03537 z"
           opacity="1"
           fill="#090909"
           sodipodi:nodetypes="ccc" />
        <path
           style="fill:#aa8800;stroke-width:0.743197"
           id="path128"
           d="m 391.23381,246.41705 c 4.79656,15.20246 12.79622,13.12141 21.58103,2.52983 -13.31756,47.87185 -27.87047,24.46177 -21.58103,-2.52983 z"
           opacity="1"
           fill="#090909"
           sodipodi:nodetypes="ccc" />
        <path
           style="fill:#aa8800;stroke-width:0.743197"
           id="path132"
           d="m 385.19607,268.72456 c 0.21897,14.3265 9.11795,15.76204 17.88875,7.59547 -20.25999,38.42773 -28.09166,18.90782 -17.88875,-7.59547 z"
           opacity="1"
           fill="#090909"
           sodipodi:nodetypes="ccc" />
        <path
           id="path134"
           d="m 102.17128,257.17031 c 14.00836,12.87947 20.79067,25.80762 27.81711,42.13611 -4.81718,-3.37305 -11.07271,-7.52516 -14.95635,-8.32649 0.11331,5.22396 1.77003,13.70416 2.51101,18.42522 -13.3532,-14.92258 -17.48608,-34.52178 -15.37177,-52.23484 z"
           opacity="1"
           fill="#090909"
           style="fill:#aa8800;stroke-width:0.912356"
           sodipodi:nodetypes="ccccc" />
        <path
           style="fill:#aa8800;stroke-width:0.743197"
           id="path142"
           d="m 374.69448,290.0307 c -1.61311,15.49051 3.77267,15.63796 16.26858,10.6946 -28.34957,33.27986 -34.0725,12.68226 -16.26858,-10.6946 z"
           opacity="1"
           fill="#090909"
           sodipodi:nodetypes="ccc" />
        <path
           style="fill:#aa8800;stroke-width:0.743197"
           id="path146"
           d="m 359.39786,310.10586 c -3.08826,17.18124 4.62368,16.6139 17.50228,9.87709 -31.90746,33.6398 -42.06501,17.26483 -17.50228,-9.87709 z"
           opacity="1"
           fill="#090909"
           sodipodi:nodetypes="ccc" />
        <path
           id="path148"
           d="m 120.40142,299.12757 c 12.30096,1.34063 23.13308,8.5769 32.70519,17.75829 -16.54017,0.59578 -15.04819,4.50082 -11.07801,15.78808 -15.5475,-8.05882 -20.79938,-20.10836 -21.62718,-33.54637 z"
           opacity="1"
           fill="#090909"
           style="fill:#aa8800;stroke-width:0.758402"
           sodipodi:nodetypes="cccc" />
        <path
           style="fill:#aa8800;stroke-width:0.743197"
           id="path154"
           d="m 342.17091,328.23738 c -7.94183,15.80991 -1.73915,14.86084 11.98976,15.30177 -35.0174,25.90529 -42.29442,2.56815 -11.98976,-15.30177 z"
           opacity="1"
           fill="#090909"
           sodipodi:nodetypes="ccc" />
        <path
           style="fill:#aa8800;stroke-width:0.743197"
           id="path158"
           d="m 178.99517,334.8797 c -17.81348,-4.69093 -19.14649,1.54239 -11.14872,16.31293 -40.63096,-27.45082 -19.55143,-42.34073 11.14872,-16.31293 z"
           opacity="1"
           fill="#090909"
           sodipodi:nodetypes="ccc" />
        <path
           style="fill:#aa8800;stroke-width:0.743197"
           id="path164"
           d="m 318.75177,342.80624 c -11.08085,15.56105 -1.45413,15.83894 12.56002,15.63687 -39.83125,16.77161 -47.71808,0.7286 -12.56002,-15.63687 z"
           opacity="1"
           fill="#090909"
           sodipodi:nodetypes="ccc" />
        <path
           id="path168"
           d="m 208.49445,350.72629 c -21.3958,0.31984 -17.64113,5.7765 -6.62589,18.72369 -49.30545,-22.48234 -26.58801,-43.43415 6.62589,-18.72369 z"
           opacity="1"
           fill="#090909"
           sodipodi:nodetypes="ccc"
           style="fill:#aa8800;stroke-width:0.833042" />
        <path
           style="fill:#aa8800;stroke-width:0.743197"
           id="path170"
           d="m 292.84837,354.8547 c -12.0044,13.02351 0.87983,14.1081 13.66739,16.14223 -40.0788,11.78488 -52.0774,-8.21484 -13.66739,-16.14223 z"
           opacity="1"
           fill="#090909"
           sodipodi:nodetypes="ccc" />
        <path
           style="fill:#aa8800;stroke-width:0.743197"
           id="path172"
           d="m 268.43734,359.62118 c -22.00812,7.74266 -9.03645,12.54753 5.27082,19.52225 -53.10447,-4.7205 -48.89361,-22.74509 -5.27082,-19.52225 z"
           opacity="1"
           fill="#090909"
           sodipodi:nodetypes="ccc" />
        <path
           fill="#090909"
           opacity="1"
           d="m 316.7324,75.974894 c 38.8122,19.689839 15.25102,37.460256 -12.80188,23.480899 20.35996,-2.31302 27.03517,-6.014765 12.80188,-23.480899 z"
           id="path70-8"
           style="fill:#aa8800;stroke-width:0.743195"
           sodipodi:nodetypes="ccc" />
        <path
           style="fill:#aa8800;stroke-width:0.833042"
           sodipodi:nodetypes="ccc"
           fill="#090909"
           opacity="1"
           d="m 238.1243,357.3885 c -20.18063,7.11507 -14.88409,11.0924 -0.31996,19.85892 -53.89765,-5.61489 -39.03282,-32.70912 0.31996,-19.85892 z"
           id="path168-7" />
      </g>
    </g>
  </g>
</svg>
